<svg width="300" height="300" viewBox="0 0 300 300" fill="none" xmlns="http://www.w3.org/2000/svg">
<path d="M170.1 150.1C170.1 148.127 170.884 146.234 172.279 144.839C173.674 143.444 175.567 142.66 177.54 142.66H241V120.49H265.1C265.466 120.489 265.823 120.374 266.12 120.16C266.418 119.947 266.641 119.646 266.76 119.3C266.891 118.948 266.904 118.562 266.798 118.202C266.691 117.841 266.471 117.525 266.17 117.3L144.29 22.74C143.983 22.4967 143.602 22.3643 143.21 22.3643C142.818 22.3643 142.437 22.4967 142.13 22.74L22.87 117.36C22.5869 117.588 22.3815 117.899 22.282 118.249C22.1825 118.598 22.1938 118.97 22.3144 119.314C22.435 119.657 22.6589 119.954 22.9554 120.165C23.2519 120.375 23.6063 120.489 23.97 120.49H46.07V245.24C46.07 245.707 46.2554 246.154 46.5855 246.485C46.9156 246.815 47.3632 247 47.83 247H170.1V150.1Z" fill="#006AC3"/>
<path d="M270.75 151.66H186.54C184.567 151.66 182.674 152.444 181.279 153.839C179.884 155.234 179.1 157.127 179.1 159.1V277.1C179.103 279.072 179.887 280.963 181.282 282.358C182.677 283.753 184.568 284.537 186.54 284.54H270.75C272.722 284.537 274.613 283.753 276.008 282.358C277.403 280.963 278.187 279.072 278.19 277.1V159.1C278.19 158.123 277.998 157.156 277.624 156.253C277.25 155.35 276.702 154.53 276.011 153.839C275.32 153.148 274.5 152.6 273.597 152.226C272.695 151.852 271.727 151.66 270.75 151.66ZM224 263.75C224 265.506 223.303 267.19 222.061 268.431C220.82 269.673 219.136 270.37 217.38 270.37H201.06C200.191 270.37 199.33 270.199 198.527 269.866C197.723 269.533 196.994 269.046 196.379 268.431C195.764 267.816 195.277 267.087 194.944 266.283C194.611 265.48 194.44 264.619 194.44 263.75V247.41C194.44 246.541 194.611 245.68 194.944 244.877C195.277 244.073 195.764 243.344 196.379 242.729C196.994 242.114 197.723 241.627 198.527 241.294C199.33 240.961 200.191 240.79 201.06 240.79H217.39C219.146 240.79 220.83 241.487 222.071 242.729C223.313 243.97 224.01 245.654 224.01 247.41L224 263.75ZM224.21 226.25C224.21 228.006 223.513 229.69 222.271 230.931C221.03 232.173 219.346 232.87 217.59 232.87H201.27C200.4 232.871 199.538 232.701 198.734 232.369C197.929 232.037 197.198 231.549 196.582 230.935C195.967 230.32 195.478 229.59 195.145 228.786C194.812 227.982 194.64 227.12 194.64 226.25V209.92C194.64 209.05 194.812 208.188 195.145 207.384C195.478 206.58 195.967 205.85 196.582 205.235C197.198 204.621 197.929 204.133 198.734 203.801C199.538 203.469 200.4 203.299 201.27 203.3H217.6C219.356 203.3 221.04 203.997 222.281 205.239C223.523 206.48 224.22 208.164 224.22 209.92L224.21 226.25ZM262.84 263.75C262.837 265.505 262.139 267.187 260.898 268.428C259.657 269.669 257.975 270.367 256.22 270.37H239.89C238.135 270.367 236.453 269.669 235.212 268.428C233.971 267.187 233.273 265.505 233.27 263.75V247.41C233.273 245.655 233.971 243.973 235.212 242.732C236.453 241.491 238.135 240.793 239.89 240.79H256.23C257.985 240.793 259.667 241.491 260.908 242.732C262.149 243.973 262.847 245.655 262.85 247.41L262.84 263.75ZM263.05 226.25C263.05 227.12 262.878 227.982 262.545 228.786C262.212 229.59 261.723 230.32 261.108 230.935C260.492 231.549 259.761 232.037 258.956 232.369C258.152 232.701 257.29 232.871 256.42 232.87H240.1C239.231 232.87 238.37 232.699 237.567 232.366C236.763 232.033 236.034 231.546 235.419 230.931C234.804 230.316 234.317 229.587 233.984 228.783C233.651 227.98 233.48 227.119 233.48 226.25V209.92C233.48 209.051 233.651 208.19 233.984 207.387C234.317 206.583 234.804 205.854 235.419 205.239C236.034 204.624 236.763 204.137 237.567 203.804C238.37 203.471 239.231 203.3 240.1 203.3H256.43C257.3 203.299 258.162 203.469 258.966 203.801C259.771 204.133 260.502 204.621 261.118 205.235C261.733 205.85 262.222 206.58 262.555 207.384C262.888 208.188 263.06 209.05 263.06 209.92L263.05 226.25ZM265.11 188.75C265.111 189.62 264.941 190.482 264.609 191.286C264.277 192.091 263.789 192.822 263.175 193.438C262.56 194.053 261.829 194.542 261.026 194.875C260.222 195.208 259.36 195.38 258.49 195.38H198.79C197.92 195.38 197.058 195.208 196.254 194.875C195.45 194.542 194.72 194.053 194.105 193.438C193.491 192.822 193.003 192.091 192.671 191.286C192.339 190.482 192.169 189.62 192.17 188.75V172.42C192.17 170.664 192.867 168.98 194.109 167.739C195.35 166.497 197.034 165.8 198.79 165.8H258.5C259.369 165.8 260.23 165.971 261.033 166.304C261.837 166.637 262.566 167.124 263.181 167.739C263.796 168.354 264.283 169.083 264.616 169.887C264.949 170.69 265.12 171.551 265.12 172.42L265.11 188.75Z" fill="#006AC3"/>
<path d="M256.18 215.65H239.95C239.265 215.65 238.71 216.205 238.71 216.89V219.27C238.71 219.955 239.265 220.51 239.95 220.51H256.18C256.865 220.51 257.42 219.955 257.42 219.27V216.89C257.42 216.205 256.865 215.65 256.18 215.65Z" fill="#006AC3"/>
<path d="M217.55 215.65H213.07C212.742 215.647 212.428 215.516 212.196 215.284C211.964 215.052 211.833 214.738 211.83 214.41V210C211.827 209.672 211.696 209.358 211.464 209.126C211.232 208.894 210.918 208.763 210.59 208.76H208.21C207.887 208.77 207.581 208.905 207.355 209.136C207.13 209.368 207.002 209.677 207 210V214.44C206.997 214.768 206.866 215.082 206.634 215.314C206.402 215.546 206.088 215.677 205.76 215.68H201.35C201.022 215.683 200.708 215.814 200.476 216.046C200.244 216.278 200.113 216.592 200.11 216.92V219.31C200.113 219.638 200.244 219.952 200.476 220.184C200.708 220.416 201.022 220.547 201.35 220.55H205.76C205.923 220.55 206.084 220.582 206.235 220.644C206.385 220.707 206.522 220.798 206.637 220.913C206.752 221.028 206.843 221.165 206.906 221.315C206.968 221.466 207 221.627 207 221.79V226.23C207.003 226.558 207.134 226.872 207.366 227.104C207.598 227.336 207.912 227.467 208.24 227.47H210.62C210.948 227.467 211.262 227.336 211.494 227.104C211.726 226.872 211.857 226.558 211.86 226.23V221.79C211.86 221.627 211.892 221.466 211.954 221.315C212.017 221.165 212.108 221.028 212.223 220.913C212.338 220.798 212.475 220.707 212.625 220.644C212.776 220.582 212.937 220.55 213.1 220.55H217.58C217.908 220.547 218.222 220.416 218.454 220.184C218.686 219.952 218.817 219.638 218.82 219.31V216.92C218.823 216.752 218.792 216.586 218.729 216.431C218.666 216.276 218.572 216.134 218.454 216.016C218.336 215.897 218.194 215.804 218.039 215.741C217.884 215.678 217.718 215.647 217.55 215.65Z" fill="#006AC3"/>
<path d="M216.68 251.56C216.796 251.446 216.888 251.309 216.95 251.159C217.013 251.009 217.046 250.848 217.046 250.685C217.046 250.522 217.013 250.361 216.95 250.211C216.888 250.061 216.796 249.924 216.68 249.81L215 248.12C214.765 247.89 214.449 247.762 214.12 247.762C213.791 247.762 213.475 247.89 213.24 248.12L210.08 251.29C209.848 251.521 209.533 251.651 209.205 251.651C208.877 251.651 208.562 251.521 208.33 251.29L205.19 248.15C204.955 247.92 204.639 247.792 204.31 247.792C203.981 247.792 203.665 247.92 203.43 248.15L201.75 249.83C201.634 249.945 201.542 250.082 201.479 250.233C201.416 250.384 201.384 250.546 201.384 250.71C201.384 250.874 201.416 251.036 201.479 251.187C201.542 251.338 201.634 251.475 201.75 251.59L204.89 254.73C205.121 254.962 205.251 255.277 205.251 255.605C205.251 255.933 205.121 256.248 204.89 256.48L201.77 259.6C201.539 259.832 201.409 260.147 201.409 260.475C201.409 260.803 201.539 261.118 201.77 261.35L203.46 263.04C203.692 263.271 204.007 263.401 204.335 263.401C204.663 263.401 204.978 263.271 205.21 263.04L208.33 259.92C208.562 259.689 208.877 259.559 209.205 259.559C209.533 259.559 209.848 259.689 210.08 259.92L213.22 263.06C213.452 263.291 213.767 263.421 214.095 263.421C214.423 263.421 214.738 263.291 214.97 263.06L216.66 261.38C216.89 261.145 217.018 260.829 217.018 260.5C217.018 260.171 216.89 259.855 216.66 259.62L213.52 256.48C213.289 256.248 213.159 255.933 213.159 255.605C213.159 255.277 213.289 254.962 213.52 254.73L216.68 251.56Z" fill="#006AC3"/>
<path d="M256.18 253.17H239.95C239.265 253.17 238.71 253.725 238.71 254.41V256.79C238.71 257.475 239.265 258.03 239.95 258.03H256.18C256.865 258.03 257.42 257.475 257.42 256.79V254.41C257.42 253.725 256.865 253.17 256.18 253.17Z" fill="#006AC3"/>
<path d="M249.25 246.23H246.87C246.185 246.23 245.63 246.785 245.63 247.47V249.85C245.63 250.535 246.185 251.09 246.87 251.09H249.25C249.935 251.09 250.49 250.535 250.49 249.85V247.47C250.49 246.785 249.935 246.23 249.25 246.23Z" fill="#006AC3"/>
<path d="M249.25 260.07H246.87C246.185 260.07 245.63 260.625 245.63 261.31V263.69C245.63 264.375 246.185 264.93 246.87 264.93H249.25C249.935 264.93 250.49 264.375 250.49 263.69V261.31C250.49 260.625 249.935 260.07 249.25 260.07Z" fill="#006AC3"/>
</svg>
